<svg width="25" height="24" viewBox="0 0 25 24" fill="none" xmlns="http://www.w3.org/2000/svg">
<path d="M4.5 13.5V13C4.5 8.02944 8.08172 4 12.5 4C16.9183 4 20.5 8.02944 20.5 13V13.5" stroke="white" stroke-width="1.5" stroke-linecap="round" stroke-linejoin="round"/>
<path d="M2.5 17.4385V15.5616C2.5 14.6439 3.12459 13.8439 4.01493 13.6213L4.5 13.5L5.75448 13.1864C6.13317 13.0918 6.5 13.3782 6.5 13.7685V19.2316C6.5 19.6219 6.13317 19.9083 5.75448 19.8137L4.01493 19.3788C3.12459 19.1562 2.5 18.3562 2.5 17.4385Z" stroke="white" stroke-width="1.5" stroke-linecap="round" stroke-linejoin="round"/>
<path d="M22.5 17.4385V15.5616C22.5 14.6439 21.8754 13.8439 20.9851 13.6213L20.5 13.5L19.2455 13.1864C18.8668 13.0918 18.5 13.3782 18.5 13.7685V19.2316C18.5 19.6219 18.8668 19.9083 19.2455 19.8137L20.9851 19.3788C21.8754 19.1562 22.5 18.3562 22.5 17.4385Z" stroke="white" stroke-width="1.5" stroke-linecap="round" stroke-linejoin="round"/>
</svg>
