<svg width="25" height="24" viewBox="0 0 25 24" fill="none" xmlns="http://www.w3.org/2000/svg">
<path d="M4.5 21.4V2.6C4.5 2.26863 4.76863 2 5.1 2H16.7515C16.9106 2 17.0632 2.06321 17.1757 2.17574L20.3243 5.32426C20.4368 5.43679 20.5 5.5894 20.5 5.74853V21.4C20.5 21.7314 20.2314 22 19.9 22H5.1C4.76863 22 4.5 21.7314 4.5 21.4Z" stroke="white" stroke-width="1.5" stroke-linecap="round" stroke-linejoin="round"/>
<path d="M16.5 5.4V2.35355C16.5 2.15829 16.6583 2 16.8536 2C16.9473 2 17.0372 2.03725 17.1036 2.10355L20.3964 5.39645C20.4628 5.46275 20.5 5.55268 20.5 5.64645C20.5 5.84171 20.3417 6 20.1464 6H17.1C16.7686 6 16.5 5.73137 16.5 5.4Z" fill="white" stroke="white" stroke-width="1.5" stroke-linecap="round" stroke-linejoin="round"/>
<path d="M8.5 10L16.5 10" stroke="white" stroke-width="1.5" stroke-linecap="round" stroke-linejoin="round"/>
<path d="M8.5 18L16.5 18" stroke="white" stroke-width="1.5" stroke-linecap="round" stroke-linejoin="round"/>
<path d="M8.5 14L12.5 14" stroke="white" stroke-width="1.5" stroke-linecap="round" stroke-linejoin="round"/>
</svg>
