<svg width="25" height="24" viewBox="0 0 25 24" fill="none" xmlns="http://www.w3.org/2000/svg">
<path d="M21.5 7.6V20.4C21.5 20.7314 21.2314 21 20.9 21H8.1C7.76863 21 7.5 20.7314 7.5 20.4V7.6C7.5 7.26863 7.76863 7 8.1 7H20.9C21.2314 7 21.5 7.26863 21.5 7.6Z" stroke="white" stroke-width="1.5" stroke-linecap="round" stroke-linejoin="round"/>
<path d="M18.5 4H5.1C4.76863 4 4.5 4.26863 4.5 4.6V18" stroke="white" stroke-width="1.5" stroke-linecap="round" stroke-linejoin="round"/>
<path d="M7.5 16.8L12.9444 15L21.5 18" stroke="white" stroke-width="1.5" stroke-linecap="round" stroke-linejoin="round"/>
<path d="M17 13C16.1716 13 15.5 12.3284 15.5 11.5C15.5 10.6716 16.1716 10 17 10C17.8284 10 18.5 10.6716 18.5 11.5C18.5 12.3284 17.8284 13 17 13Z" stroke="white" stroke-width="1.5" stroke-linecap="round" stroke-linejoin="round"/>
</svg>
