<svg width="24" height="24" viewBox="0 0 24 24" fill="none" xmlns="http://www.w3.org/2000/svg">
<path d="M3.26574 2.46182L21.6911 11.541C21.9883 11.6874 22.1106 12.0471 21.9641 12.3444C21.9057 12.463 21.8097 12.559 21.6911 12.6174L3.26612 21.6964C2.96888 21.8428 2.60918 21.7206 2.46271 21.4234C2.39866 21.2934 2.38382 21.1446 2.42091 21.0046L4.78335 12.0842L2.4205 3.15349C2.33574 2.83314 2.52672 2.50474 2.84707 2.41998C2.9871 2.38293 3.13581 2.39779 3.26574 2.46182ZM3.91773 4.12086L5.84868 11.4194L5.92305 11.405L6.00039 11.4H14.4004C14.7318 11.4 15.0004 11.6687 15.0004 12C15.0004 12.2946 14.7881 12.5396 14.5082 12.5904L14.4004 12.6H6.00039C5.96271 12.6 5.92583 12.5966 5.89007 12.5899L3.91849 20.0371L20.0685 12.0792L3.91773 4.12086Z" fill="#1E293B" stroke="#1E293B" stroke-width="0.6"/>
</svg>
